<mxfile host="app.diagrams.net" modified="2021-08-16T02:32:52.597Z" agent="5.0 (Macintosh; Intel Mac OS X 10_15_7) AppleWebKit/537.36 (KHTML, like Gecko) Chrome/92.0.4515.131 Safari/537.36" etag="ZoYTYjNpulURBZ8kXLed" version="14.9.6" type="github">
  <diagram id="Gf28lArQZ4zttftTxG-V" name="Page-1">
    <mxGraphModel dx="786" dy="1131" grid="1" gridSize="10" guides="1" tooltips="1" connect="1" arrows="1" fold="1" page="1" pageScale="1" pageWidth="850" pageHeight="1100" math="0" shadow="0">
      <root>
        <mxCell id="0" />
        <mxCell id="1" parent="0" />
        <mxCell id="uLgal7vPKmVtKSxQe5YN-3" style="edgeStyle=orthogonalEdgeStyle;rounded=0;orthogonalLoop=1;jettySize=auto;html=1;entryX=0.5;entryY=0;entryDx=0;entryDy=0;" edge="1" parent="1" source="uLgal7vPKmVtKSxQe5YN-1" target="uLgal7vPKmVtKSxQe5YN-2">
          <mxGeometry relative="1" as="geometry" />
        </mxCell>
        <mxCell id="uLgal7vPKmVtKSxQe5YN-1" value="Java 코드 (.java)" style="rounded=0;whiteSpace=wrap;html=1;" vertex="1" parent="1">
          <mxGeometry x="130" y="190" width="120" height="60" as="geometry" />
        </mxCell>
        <mxCell id="uLgal7vPKmVtKSxQe5YN-7" style="edgeStyle=orthogonalEdgeStyle;rounded=0;orthogonalLoop=1;jettySize=auto;html=1;entryX=0.5;entryY=0;entryDx=0;entryDy=0;" edge="1" parent="1" source="uLgal7vPKmVtKSxQe5YN-2" target="uLgal7vPKmVtKSxQe5YN-6">
          <mxGeometry relative="1" as="geometry" />
        </mxCell>
        <mxCell id="uLgal7vPKmVtKSxQe5YN-2" value="클래스 파일 (.class)" style="rounded=0;whiteSpace=wrap;html=1;" vertex="1" parent="1">
          <mxGeometry x="130" y="410" width="120" height="60" as="geometry" />
        </mxCell>
        <mxCell id="uLgal7vPKmVtKSxQe5YN-5" value="Java 컴파일러 (javac.exe)" style="rounded=1;whiteSpace=wrap;html=1;fillColor=#dae8fc;strokeColor=#6c8ebf;" vertex="1" parent="1">
          <mxGeometry x="130" y="300" width="120" height="60" as="geometry" />
        </mxCell>
        <mxCell id="uLgal7vPKmVtKSxQe5YN-8" style="edgeStyle=orthogonalEdgeStyle;rounded=0;orthogonalLoop=1;jettySize=auto;html=1;exitX=0.5;exitY=1;exitDx=0;exitDy=0;" edge="1" parent="1" source="uLgal7vPKmVtKSxQe5YN-6">
          <mxGeometry relative="1" as="geometry">
            <mxPoint x="190" y="630" as="targetPoint" />
          </mxGeometry>
        </mxCell>
        <mxCell id="uLgal7vPKmVtKSxQe5YN-6" value="Java 인터프리터 (java.exe)" style="rounded=1;whiteSpace=wrap;html=1;fillColor=#dae8fc;strokeColor=#6c8ebf;" vertex="1" parent="1">
          <mxGeometry x="130" y="520" width="120" height="60" as="geometry" />
        </mxCell>
        <mxCell id="uLgal7vPKmVtKSxQe5YN-9" value="머신 코드" style="rounded=0;whiteSpace=wrap;html=1;" vertex="1" parent="1">
          <mxGeometry x="130" y="630" width="120" height="60" as="geometry" />
        </mxCell>
        <mxCell id="uLgal7vPKmVtKSxQe5YN-10" style="edgeStyle=orthogonalEdgeStyle;rounded=0;orthogonalLoop=1;jettySize=auto;html=1;entryX=0.5;entryY=0;entryDx=0;entryDy=0;" edge="1" parent="1" source="uLgal7vPKmVtKSxQe5YN-11" target="uLgal7vPKmVtKSxQe5YN-17">
          <mxGeometry relative="1" as="geometry">
            <mxPoint x="450" y="410" as="targetPoint" />
          </mxGeometry>
        </mxCell>
        <mxCell id="uLgal7vPKmVtKSxQe5YN-11" value="JavaScript 코드 (.js)" style="rounded=0;whiteSpace=wrap;html=1;" vertex="1" parent="1">
          <mxGeometry x="390" y="190" width="120" height="60" as="geometry" />
        </mxCell>
        <mxCell id="uLgal7vPKmVtKSxQe5YN-14" value="JavaScript 인터프리터&lt;br&gt;(V8 engine)" style="rounded=1;whiteSpace=wrap;html=1;fillColor=#dae8fc;strokeColor=#6c8ebf;" vertex="1" parent="1">
          <mxGeometry x="390" y="300" width="120" height="60" as="geometry" />
        </mxCell>
        <mxCell id="uLgal7vPKmVtKSxQe5YN-15" style="edgeStyle=orthogonalEdgeStyle;rounded=0;orthogonalLoop=1;jettySize=auto;html=1;exitX=0.5;exitY=1;exitDx=0;exitDy=0;" edge="1" parent="1">
          <mxGeometry relative="1" as="geometry">
            <mxPoint x="450" y="630" as="targetPoint" />
            <mxPoint x="450" y="580" as="sourcePoint" />
          </mxGeometry>
        </mxCell>
        <mxCell id="uLgal7vPKmVtKSxQe5YN-17" value="머신 코드" style="rounded=0;whiteSpace=wrap;html=1;" vertex="1" parent="1">
          <mxGeometry x="390" y="630" width="120" height="60" as="geometry" />
        </mxCell>
      </root>
    </mxGraphModel>
  </diagram>
</mxfile>
